<?xml version="1.0" encoding="utf-8"?>
<!-- Generator: Adobe Illustrator 17.0.2, SVG Export Plug-In . SVG Version: 6.00 Build 0)  -->
<!DOCTYPE svg PUBLIC "-//W3C//DTD SVG 1.1//EN" "http://www.w3.org/Graphics/SVG/1.1/DTD/svg11.dtd">
<svg version="1.1" id="Layer_1" xmlns="http://www.w3.org/2000/svg" xmlns:xlink="http://www.w3.org/1999/xlink" x="0px" y="0px"
	 width="3000px" height="3270px" viewBox="0 0 3000 3270" enable-background="new 0 0 3000 3270" xml:space="preserve">
<g>
	<g>
		<g>
			<path fill="#C6CBD1" d="M1277.005,239.613c-25.856,0-50.748-14.273-63.096-38.97c-17.401-34.807-3.284-77.129,31.528-94.528
				c48.251-24.117,90.171-44.327,124.59-60.065c35.363-16.185,77.194-0.619,93.396,34.768c16.182,35.392,0.61,77.198-34.782,93.383
				c-32.944,15.069-73.38,34.566-120.186,57.961C1298.339,237.219,1287.584,239.613,1277.005,239.613z"/>
		</g>
		<g>
			<path fill="#C6CBD1" d="M1073.304,3057.844c-11.443,0-23.044-2.782-33.78-8.67c-72.731-39.811-153.258-84.644-239.349-133.243
				c-33.888-19.138-45.843-62.124-26.711-96.007c19.141-33.883,62.113-45.856,96.021-26.708
				c85.55,48.313,165.527,92.842,237.717,132.358c34.144,18.687,46.659,61.505,27.97,95.634
				C1122.362,3044.603,1098.216,3057.844,1073.304,3057.844z M632.722,2809.849c-11.915,0-23.998-3.028-35.068-9.397
				c-77.135-44.362-156.738-90.572-236.586-137.361c-33.583-19.669-44.85-62.832-25.168-96.41
				c19.672-33.579,62.841-44.863,96.424-25.164c79.524,46.593,158.792,92.616,235.603,136.791
				c33.74,19.394,45.351,62.468,25.954,96.204C680.845,2797.168,657.123,2809.849,632.722,2809.849z M197.694,2552.495
				c-15.563,0-31.214-5.121-44.26-15.659C107.307,2499.552,0,2398.286,0,2263.441v-11.894c0-38.916,31.548-70.46,70.47-70.46
				s70.47,31.544,70.47,70.46v11.894c0,76.181,77.371,144.635,101.094,163.793c30.27,24.466,34.969,68.828,10.509,99.094
				C238.621,2543.55,218.241,2552.495,197.694,2552.495z M70.47,2089.532c-38.921,0-70.47-31.544-70.47-70.46v-272.914
				c0-38.916,31.548-70.46,70.47-70.46s70.47,31.544,70.47,70.46v272.914C140.939,2057.989,109.391,2089.532,70.47,2089.532z
				 M70.47,1584.144c-38.921,0-70.47-31.544-70.47-70.46V1240.77c0-38.916,31.548-70.46,70.47-70.46s70.47,31.544,70.47,70.46
				v272.914C140.939,1552.601,109.391,1584.144,70.47,1584.144z M70.47,1078.751c-38.921,0-70.47-31.544-70.47-70.46v-1.592
				c0-135.002,78.62-230.71,144.567-287.226c29.543-25.322,74.028-21.911,99.373,7.648c25.325,29.548,21.894,74.028-7.649,99.35
				c-43.503,37.275-95.352,98.799-95.352,180.229v1.592C140.939,1047.208,109.391,1078.751,70.47,1078.751z M388.29,721.469
				c-24.539,0-48.369-12.828-61.346-35.677c-19.22-33.839-7.364-76.849,26.475-96.066c79.288-45.02,159.54-90.129,238.523-134.073
				c33.967-18.917,76.909-6.709,95.844,27.307c18.925,34.006,6.695,76.908-27.321,95.83
				c-78.62,43.747-158.517,88.655-237.442,133.474C412.033,718.5,400.078,721.469,388.29,721.469z M829.935,475.454
				c-24.951,0-49.126-13.28-61.917-36.724c-18.64-34.158-6.056-76.962,28.107-95.599c85.993-46.922,167.178-90.557,241.295-129.699
				c34.419-18.195,77.047-5.023,95.224,29.391c18.178,34.409,5.014,77.041-29.395,95.211
				c-73.557,38.847-154.182,82.182-239.624,128.795C852.91,472.677,841.339,475.454,829.935,475.454z"/>
		</g>
		<g>
			<path fill="#C6CBD1" d="M1399.285,3228.282c-10.175,0-20.498-2.212-30.29-6.881c-34.163-16.298-75.739-37.156-123.587-62.006
				c-34.537-17.939-47.996-60.473-30.054-95.005c17.932-34.532,60.462-48.009,95.018-30.05
				c46.432,24.112,86.573,44.254,119.301,59.863c35.127,16.76,50.021,58.812,33.269,93.933
				C1450.849,3213.469,1425.603,3228.282,1399.285,3228.282z"/>
		</g>
	</g>
	<g>
		<g>
			<path fill="#C6CBD1" d="M1600.725,3228.282c-26.318,0-51.564-14.804-63.647-40.135c-16.762-35.122-1.878-77.174,33.249-93.933
				c32.757-15.629,72.898-35.771,119.301-59.873c34.537-17.949,77.086-4.482,95.018,30.05c17.942,34.532,4.483,77.065-30.054,95.005
				c-47.809,24.83-89.385,45.689-123.568,61.997C1621.233,3226.061,1610.9,3228.282,1600.725,3228.282z"/>
		</g>
		<g>
			<path fill="#C6CBD1" d="M1927.109,3057.628c-24.912,0-49.057-13.231-61.867-36.626c-18.699-34.129-6.174-76.957,27.96-95.644
				c72.564-39.732,152.54-84.261,237.697-132.348c33.927-19.109,76.88-7.156,96.021,26.708
				c19.131,33.883,7.177,76.869-26.711,96.007c-85.698,48.382-166.215,93.206-239.309,133.233
				C1950.153,3054.836,1938.552,3057.628,1927.109,3057.628z M2367.632,2809.672c-24.401,0-48.114-12.671-61.15-35.338
				c-19.407-33.726-7.796-76.8,25.944-96.204c77.096-44.352,156.364-90.365,235.573-136.781
				c33.593-19.669,76.742-8.404,96.434,25.174c19.672,33.579,8.396,76.741-25.177,96.42
				c-79.544,46.593-159.127,92.803-236.557,137.332C2391.63,2806.644,2379.547,2809.672,2367.632,2809.672z M2802.571,2552.269
				c-20.528,0-40.888-8.925-54.809-26.127c-24.49-30.246-19.82-74.618,10.431-99.094c23.664-19.158,100.867-87.554,100.867-163.607
				v-12.209c0-38.916,31.548-70.46,70.47-70.46c38.921,0,70.469,31.544,70.469,70.46v12.209
				c0,134.658-107.091,235.875-153.13,273.13C2833.824,2547.138,2818.144,2552.269,2802.571,2552.269z M2929.531,2089.238
				c-38.922,0-70.47-31.544-70.47-70.46v-272.894c0-38.916,31.548-70.46,70.47-70.46c38.921,0,70.469,31.544,70.469,70.46v272.894
				C3000,2057.694,2968.452,2089.238,2929.531,2089.238z M2929.531,1583.879c-38.922,0-70.47-31.544-70.47-70.46v-272.884
				c0-38.916,31.548-70.46,70.47-70.46c38.921,0,70.469,31.544,70.469,70.46v272.884
				C3000,1552.335,2968.452,1583.879,2929.531,1583.879z M2929.531,1078.53c-38.922,0-70.47-31.544-70.47-70.46v-1.371
				c0-80.589-52.292-142.502-96.158-180.249c-29.493-25.385-32.826-69.87-7.442-99.364c25.404-29.499,69.88-32.827,99.383-7.446
				C2921.066,776.623,3000,872.68,3000,1006.699v1.371C3000,1046.987,2968.452,1078.53,2929.531,1078.53z M2611.267,721.179
				c-11.788,0-23.742-2.959-34.724-9.201c-79.082-44.897-158.969-89.8-237.451-133.469c-34.016-18.922-46.246-61.824-27.321-95.83
				c18.925-34.016,61.867-46.229,95.844-27.307c78.846,43.865,159.087,88.969,238.513,134.068
				c33.849,19.212,45.705,62.222,26.485,96.061C2659.636,708.356,2635.806,721.179,2611.267,721.179z M2169.633,475.189
				c-11.414,0-22.976-2.777-33.691-8.621c-85.551-46.672-166.176-90.001-239.624-128.795c-34.409-18.17-47.573-60.802-29.395-95.211
				s60.806-47.561,95.224-29.391c74.009,39.083,155.194,82.718,241.295,129.689c34.163,18.637,46.747,61.441,28.107,95.599
				C2218.759,461.904,2194.584,475.189,2169.633,475.189z"/>
		</g>
		<g>
			<path fill="#C6CBD1" d="M1723.005,239.593c-10.578,0-21.333-2.394-31.45-7.446c-46.855-23.415-87.291-42.917-120.186-57.961
				c-35.392-16.185-50.965-57.991-34.783-93.378c16.192-35.402,58.043-50.943,93.396-34.773
				c34.37,15.713,76.28,35.918,124.59,60.055c34.812,17.399,48.93,59.721,31.528,94.528
				C1773.753,225.316,1748.86,239.593,1723.005,239.593z"/>
		</g>
	</g>
	<g>
		<path fill="#C6CBD1" d="M1399.373,180.6c-26.721,0.005-52.272-15.275-64.119-41.162c-16.192-35.387-0.629-77.198,34.763-93.388
			c71.472-32.689,98.921-40.902,114.857-44.406c9.969-2.192,20.301-2.192,30.25,0c15.926,3.499,43.375,11.707,114.857,44.386
			c35.392,16.185,50.965,57.991,34.783,93.383c-16.192,35.402-58.043,50.943-93.396,34.778
			c-36.7-16.779-58.623-25.567-71.364-30.153c-12.741,4.586-34.665,13.373-71.354,30.163
			C1419.154,178.546,1409.185,180.6,1399.373,180.6z"/>
	</g>
	<g>
		<path fill="#C6CBD1" d="M1499.995,3270c-5.682,0-11.375-0.688-16.929-2.064c-14.757-3.647-42.628-12.445-114.081-46.544
			c-35.127-16.76-50.011-58.812-33.249-93.933c16.752-35.132,58.83-50.024,93.946-33.244c35.333,16.858,57.178,26.108,70.312,31.17
			c13.144-5.062,34.999-14.312,70.332-31.17c35.107-16.799,77.184-1.887,93.946,33.244c16.762,35.122,1.878,77.183-33.249,93.933
			c-71.472,34.099-99.344,42.897-114.1,46.544C1511.37,3269.312,1505.677,3270,1499.995,3270z"/>
	</g>
</g>
</svg>
